<?xml version="1.0" encoding="UTF-8" standalone="no"?>
<!DOCTYPE svg PUBLIC "-//W3C//DTD SVG 1.1//EN"
 "http://www.w3.org/Graphics/SVG/1.1/DTD/svg11.dtd">
<!-- Generated by graphviz version 12.2.1 (20250203.1708)
 -->
<!-- Pages: 1 -->
<svg width="3142pt" height="67pt"
 viewBox="0.00 0.00 3142.00 67.00" xmlns="http://www.w3.org/2000/svg" xmlns:xlink="http://www.w3.org/1999/xlink">
<g id="graph0" class="graph" transform="scale(1 1) rotate(0) translate(4 63)">
<polygon fill="white" stroke="none" points="-4,4 -4,-63 3138,-63 3138,4 -4,4"/>
<!-- &#45;2848514370332988883 -->
<g id="node1" class="node">
<title>&#45;2848514370332988883</title>
<polygon fill="none" stroke="black" points="3134,-59 2749.75,-59 2749.75,-23 3134,-23 3134,-59"/>
<text text-anchor="middle" x="2941.88" y="-34" font-family="Helvetica,sans-Serif" font-size="20.00">Projection(Mean, mean_temperature)</text>
</g>
<!-- &#45;9045257289033212540 -->
<g id="node2" class="node">
<title>&#45;9045257289033212540</title>
<polygon fill="none" stroke="black" points="2713.75,-59 2531.25,-59 2531.25,-23 2713.75,-23 2713.75,-59"/>
<text text-anchor="middle" x="2622.5" y="-34" font-family="Helvetica,sans-Serif" font-size="20.00">Mean(Projection)</text>
</g>
<!-- &#45;9045257289033212540&#45;&gt;&#45;2848514370332988883 -->
<g id="edge1" class="edge">
<title>&#45;9045257289033212540&#45;&gt;&#45;2848514370332988883</title>
<path fill="none" stroke="black" d="M2714.02,-41C2721.83,-41 2729.91,-41 2738.17,-41"/>
<polygon fill="black" stroke="black" points="2738.01,-44.5 2748.01,-41 2738.01,-37.5 2738.01,-44.5"/>
</g>
<!-- &#45;7450341087797966487 -->
<g id="node3" class="node">
<title>&#45;7450341087797966487</title>
<polygon fill="none" stroke="black" points="2495.25,-59 1973.75,-59 1973.75,-23 2495.25,-23 2495.25,-59"/>
<text text-anchor="middle" x="2234.5" y="-34" font-family="Helvetica,sans-Serif" font-size="20.00">Projection(Filter, [&#39;station_id&#39;, &#39;mean_temperature&#39;])</text>
</g>
<!-- &#45;7450341087797966487&#45;&gt;&#45;9045257289033212540 -->
<g id="edge2" class="edge">
<title>&#45;7450341087797966487&#45;&gt;&#45;9045257289033212540</title>
<path fill="none" stroke="black" d="M2495.64,-41C2503.77,-41 2511.71,-41 2519.4,-41"/>
<polygon fill="black" stroke="black" points="2519.36,-44.5 2529.36,-41 2519.36,-37.5 2519.36,-44.5"/>
</g>
<!-- &#45;9164628026197181280 -->
<g id="node4" class="node">
<title>&#45;9164628026197181280</title>
<polygon fill="none" stroke="black" points="1937.75,-59 1590.25,-59 1590.25,-23 1937.75,-23 1937.75,-59"/>
<text text-anchor="middle" x="1764" y="-34" font-family="Helvetica,sans-Serif" font-size="20.00">Filter(ArrowStringConversion, EQ)</text>
</g>
<!-- &#45;9164628026197181280&#45;&gt;&#45;7450341087797966487 -->
<g id="edge3" class="edge">
<title>&#45;9164628026197181280&#45;&gt;&#45;7450341087797966487</title>
<path fill="none" stroke="black" d="M1938.12,-41C1946,-41 1953.99,-41 1962.03,-41"/>
<polygon fill="black" stroke="black" points="1961.93,-44.5 1971.93,-41 1961.93,-37.5 1961.93,-44.5"/>
</g>
<!-- &#45;8791649731742655164 -->
<g id="node5" class="node">
<title>&#45;8791649731742655164</title>
<polygon fill="none" stroke="black" points="1554.25,-36 1245.75,-36 1245.75,0 1554.25,0 1554.25,-36"/>
<text text-anchor="middle" x="1400" y="-11" font-family="Helvetica,sans-Serif" font-size="20.00">EQ(Projection, SouthAmerica)</text>
</g>
<!-- &#45;8791649731742655164&#45;&gt;&#45;9164628026197181280 -->
<g id="edge5" class="edge">
<title>&#45;8791649731742655164&#45;&gt;&#45;9164628026197181280</title>
<path fill="none" stroke="black" d="M1554.52,-27.75C1562.44,-28.26 1570.44,-28.77 1578.45,-29.27"/>
<polygon fill="black" stroke="black" points="1578.05,-32.76 1588.25,-29.9 1578.5,-25.77 1578.05,-32.76"/>
</g>
<!-- &#45;3081742066494382068 -->
<g id="node6" class="node">
<title>&#45;3081742066494382068</title>
<polygon fill="none" stroke="black" points="1209.75,-36 747.5,-36 747.5,0 1209.75,0 1209.75,-36"/>
<text text-anchor="middle" x="978.62" y="-11" font-family="Helvetica,sans-Serif" font-size="20.00">Projection(ArrowStringConversion, continent)</text>
</g>
<!-- &#45;3081742066494382068&#45;&gt;&#45;8791649731742655164 -->
<g id="edge6" class="edge">
<title>&#45;3081742066494382068&#45;&gt;&#45;8791649731742655164</title>
<path fill="none" stroke="black" d="M1210.17,-18C1218.16,-18 1226.11,-18 1233.98,-18"/>
<polygon fill="black" stroke="black" points="1233.92,-21.5 1243.92,-18 1233.92,-14.5 1233.92,-21.5"/>
</g>
<!-- 6040301694998402241 -->
<g id="node7" class="node">
<title>6040301694998402241</title>
<polygon fill="none" stroke="black" points="711.5,-59 252.25,-59 252.25,-23 711.5,-23 711.5,-59"/>
<text text-anchor="middle" x="481.88" y="-34" font-family="Helvetica,sans-Serif" font-size="20.00">ArrowStringConversion(FromMapProjectable)</text>
</g>
<!-- 6040301694998402241&#45;&gt;&#45;9164628026197181280 -->
<g id="edge4" class="edge">
<title>6040301694998402241&#45;&gt;&#45;9164628026197181280</title>
<path fill="none" stroke="black" d="M711.65,-44.67C723.78,-44.8 735.78,-44.91 747.5,-45 1106.05,-47.71 1195.71,-48.43 1554.25,-45 1562.22,-44.92 1570.37,-44.83 1578.6,-44.72"/>
<polygon fill="black" stroke="black" points="1578.4,-48.23 1588.35,-44.59 1578.3,-41.23 1578.4,-48.23"/>
</g>
<!-- 6040301694998402241&#45;&gt;&#45;3081742066494382068 -->
<g id="edge7" class="edge">
<title>6040301694998402241&#45;&gt;&#45;3081742066494382068</title>
<path fill="none" stroke="black" d="M711.78,-30.36C719.78,-29.99 727.8,-29.61 735.82,-29.24"/>
<polygon fill="black" stroke="black" points="735.8,-32.75 745.62,-28.79 735.47,-25.75 735.8,-32.75"/>
</g>
<!-- &#45;5737918671691616435 -->
<g id="node8" class="node">
<title>&#45;5737918671691616435</title>
<polygon fill="none" stroke="black" points="216.25,-59 0,-59 0,-23 216.25,-23 216.25,-59"/>
<text text-anchor="middle" x="108.12" y="-34" font-family="Helvetica,sans-Serif" font-size="20.00">FromMapProjectable</text>
</g>
<!-- &#45;5737918671691616435&#45;&gt;6040301694998402241 -->
<g id="edge8" class="edge">
<title>&#45;5737918671691616435&#45;&gt;6040301694998402241</title>
<path fill="none" stroke="black" d="M216.65,-41C224.46,-41 232.5,-41 240.7,-41"/>
<polygon fill="black" stroke="black" points="240.45,-44.5 250.45,-41 240.45,-37.5 240.45,-44.5"/>
</g>
</g>
</svg>
